<mxfile host="Electron" agent="Mozilla/5.0 (Windows NT 10.0; Win64; x64) AppleWebKit/537.36 (KHTML, like Gecko) draw.io/26.0.16 Chrome/132.0.6834.196 Electron/34.2.0 Safari/537.36" version="26.0.16">
  <diagram id="C5RBs43oDa-KdzZeNtuy" name="Page-1">
    <mxGraphModel dx="2284" dy="709" grid="1" gridSize="10" guides="1" tooltips="1" connect="1" arrows="1" fold="1" page="1" pageScale="1" pageWidth="827" pageHeight="1169" math="0" shadow="0">
      <root>
        <mxCell id="WIyWlLk6GJQsqaUBKTNV-0" />
        <mxCell id="WIyWlLk6GJQsqaUBKTNV-1" parent="WIyWlLk6GJQsqaUBKTNV-0" />
        <mxCell id="FFYwZmAlAXLZ2eOlx7DF-1" value="" style="strokeWidth=1;shadow=0;dashed=0;align=center;html=1;shape=mxgraph.mockup.containers.browserWindow;rSize=0;strokeColor=#666666;strokeColor2=#008cff;strokeColor3=#c4c4c4;mainText=,;recursiveResize=0;" parent="WIyWlLk6GJQsqaUBKTNV-1" vertex="1">
          <mxGeometry x="-80" y="10" width="880" height="610" as="geometry" />
        </mxCell>
        <mxCell id="FFYwZmAlAXLZ2eOlx7DF-2" value="Page 1" style="strokeWidth=1;shadow=0;dashed=0;align=center;html=1;shape=mxgraph.mockup.containers.anchor;fontSize=17;fontColor=#666666;align=left;whiteSpace=wrap;" parent="FFYwZmAlAXLZ2eOlx7DF-1" vertex="1">
          <mxGeometry x="60" y="12" width="110" height="26" as="geometry" />
        </mxCell>
        <mxCell id="FFYwZmAlAXLZ2eOlx7DF-3" value="https://www.connect4.co.uk" style="strokeWidth=1;shadow=0;dashed=0;align=center;html=1;shape=mxgraph.mockup.containers.anchor;rSize=0;fontSize=17;fontColor=#666666;align=left;" parent="FFYwZmAlAXLZ2eOlx7DF-1" vertex="1">
          <mxGeometry x="130" y="60" width="250" height="26" as="geometry" />
        </mxCell>
        <mxCell id="FFYwZmAlAXLZ2eOlx7DF-4" value="Welcome to Connect4!&amp;nbsp;" style="rounded=0;whiteSpace=wrap;html=1;" parent="FFYwZmAlAXLZ2eOlx7DF-1" vertex="1">
          <mxGeometry x="325" y="120" width="230" height="70" as="geometry" />
        </mxCell>
        <mxCell id="FFYwZmAlAXLZ2eOlx7DF-10" value="" style="verticalLabelPosition=bottom;shadow=0;dashed=0;align=center;html=1;verticalAlign=top;strokeWidth=1;shape=mxgraph.mockup.graphics.simpleIcon;strokeColor=#999999;" parent="FFYwZmAlAXLZ2eOlx7DF-1" vertex="1">
          <mxGeometry x="170" y="195" width="537.5" height="390" as="geometry" />
        </mxCell>
        <mxCell id="FFYwZmAlAXLZ2eOlx7DF-12" value="Welcoming the user to the website. Asks user to select a language from the list and choose tutor.&amp;nbsp;" style="text;html=1;align=center;verticalAlign=middle;whiteSpace=wrap;rounded=0;" parent="FFYwZmAlAXLZ2eOlx7DF-1" vertex="1">
          <mxGeometry x="348.75" y="220" width="180" height="190" as="geometry" />
        </mxCell>
        <mxCell id="FFYwZmAlAXLZ2eOlx7DF-13" value="" style="strokeWidth=1;shadow=0;dashed=0;align=center;html=1;shape=mxgraph.mockup.containers.browserWindow;rSize=0;strokeColor=#666666;strokeColor2=#008cff;strokeColor3=#c4c4c4;mainText=,;recursiveResize=0;" parent="WIyWlLk6GJQsqaUBKTNV-1" vertex="1">
          <mxGeometry x="-80" y="650" width="880" height="610" as="geometry" />
        </mxCell>
        <mxCell id="FFYwZmAlAXLZ2eOlx7DF-14" value="Page 2" style="strokeWidth=1;shadow=0;dashed=0;align=center;html=1;shape=mxgraph.mockup.containers.anchor;fontSize=17;fontColor=#666666;align=left;whiteSpace=wrap;" parent="FFYwZmAlAXLZ2eOlx7DF-13" vertex="1">
          <mxGeometry x="60" y="12" width="110" height="26" as="geometry" />
        </mxCell>
        <mxCell id="FFYwZmAlAXLZ2eOlx7DF-15" value="https://www.connect4.co.uk" style="strokeWidth=1;shadow=0;dashed=0;align=center;html=1;shape=mxgraph.mockup.containers.anchor;rSize=0;fontSize=17;fontColor=#666666;align=left;" parent="FFYwZmAlAXLZ2eOlx7DF-13" vertex="1">
          <mxGeometry x="130" y="60" width="250" height="26" as="geometry" />
        </mxCell>
        <mxCell id="FFYwZmAlAXLZ2eOlx7DF-16" value="Please select tutor and arrange tutoring time.&amp;nbsp;" style="rounded=0;whiteSpace=wrap;html=1;" parent="FFYwZmAlAXLZ2eOlx7DF-13" vertex="1">
          <mxGeometry x="325" y="120" width="230" height="70" as="geometry" />
        </mxCell>
        <mxCell id="FFYwZmAlAXLZ2eOlx7DF-17" value="" style="verticalLabelPosition=bottom;shadow=0;dashed=0;align=center;html=1;verticalAlign=top;strokeWidth=1;shape=mxgraph.mockup.graphics.simpleIcon;strokeColor=#999999;" parent="FFYwZmAlAXLZ2eOlx7DF-13" vertex="1">
          <mxGeometry x="170" y="195" width="537.5" height="390" as="geometry" />
        </mxCell>
        <mxCell id="FFYwZmAlAXLZ2eOlx7DF-18" value="User selects tutor and arrange time and date by dropdown list." style="text;html=1;align=center;verticalAlign=middle;whiteSpace=wrap;rounded=0;" parent="FFYwZmAlAXLZ2eOlx7DF-13" vertex="1">
          <mxGeometry x="350" y="210" width="180" height="190" as="geometry" />
        </mxCell>
        <mxCell id="FFYwZmAlAXLZ2eOlx7DF-19" value="" style="strokeWidth=1;shadow=0;dashed=0;align=center;html=1;shape=mxgraph.mockup.containers.browserWindow;rSize=0;strokeColor=#666666;strokeColor2=#008cff;strokeColor3=#c4c4c4;mainText=,;recursiveResize=0;" parent="WIyWlLk6GJQsqaUBKTNV-1" vertex="1">
          <mxGeometry x="-90" y="1290" width="880" height="610" as="geometry" />
        </mxCell>
        <mxCell id="FFYwZmAlAXLZ2eOlx7DF-20" value="Page 3" style="strokeWidth=1;shadow=0;dashed=0;align=center;html=1;shape=mxgraph.mockup.containers.anchor;fontSize=17;fontColor=#666666;align=left;whiteSpace=wrap;" parent="FFYwZmAlAXLZ2eOlx7DF-19" vertex="1">
          <mxGeometry x="60" y="12" width="110" height="26" as="geometry" />
        </mxCell>
        <mxCell id="FFYwZmAlAXLZ2eOlx7DF-21" value="https://www.connect4.co.uk" style="strokeWidth=1;shadow=0;dashed=0;align=center;html=1;shape=mxgraph.mockup.containers.anchor;rSize=0;fontSize=17;fontColor=#666666;align=left;" parent="FFYwZmAlAXLZ2eOlx7DF-19" vertex="1">
          <mxGeometry x="130" y="60" width="250" height="26" as="geometry" />
        </mxCell>
        <mxCell id="FFYwZmAlAXLZ2eOlx7DF-22" value="Booking has been complete" style="rounded=0;whiteSpace=wrap;html=1;" parent="FFYwZmAlAXLZ2eOlx7DF-19" vertex="1">
          <mxGeometry x="325" y="120" width="230" height="70" as="geometry" />
        </mxCell>
        <mxCell id="FFYwZmAlAXLZ2eOlx7DF-23" value="" style="verticalLabelPosition=bottom;shadow=0;dashed=0;align=center;html=1;verticalAlign=top;strokeWidth=1;shape=mxgraph.mockup.graphics.simpleIcon;strokeColor=#999999;" parent="FFYwZmAlAXLZ2eOlx7DF-19" vertex="1">
          <mxGeometry x="170" y="195" width="537.5" height="390" as="geometry" />
        </mxCell>
        <mxCell id="FFYwZmAlAXLZ2eOlx7DF-24" value="&lt;div&gt;User alerted that the booking has been complete.&lt;/div&gt;" style="text;html=1;align=center;verticalAlign=middle;whiteSpace=wrap;rounded=0;" parent="FFYwZmAlAXLZ2eOlx7DF-19" vertex="1">
          <mxGeometry x="350" y="210" width="180" height="190" as="geometry" />
        </mxCell>
        <mxCell id="48EZU8U2pRMW85eobXTZ-0" value="" style="strokeWidth=1;shadow=0;dashed=0;align=center;html=1;shape=mxgraph.mockup.containers.browserWindow;rSize=0;strokeColor=#666666;strokeColor2=#008cff;strokeColor3=#c4c4c4;mainText=,;recursiveResize=0;" vertex="1" parent="WIyWlLk6GJQsqaUBKTNV-1">
          <mxGeometry x="-10" y="1980" width="880" height="610" as="geometry" />
        </mxCell>
        <mxCell id="48EZU8U2pRMW85eobXTZ-1" value="Page 2" style="strokeWidth=1;shadow=0;dashed=0;align=center;html=1;shape=mxgraph.mockup.containers.anchor;fontSize=17;fontColor=#666666;align=left;whiteSpace=wrap;" vertex="1" parent="48EZU8U2pRMW85eobXTZ-0">
          <mxGeometry x="60" y="12" width="110" height="26" as="geometry" />
        </mxCell>
        <mxCell id="48EZU8U2pRMW85eobXTZ-2" value="https://www.connect4.co.uk" style="strokeWidth=1;shadow=0;dashed=0;align=center;html=1;shape=mxgraph.mockup.containers.anchor;rSize=0;fontSize=17;fontColor=#666666;align=left;" vertex="1" parent="48EZU8U2pRMW85eobXTZ-0">
          <mxGeometry x="130" y="60" width="250" height="26" as="geometry" />
        </mxCell>
        <mxCell id="48EZU8U2pRMW85eobXTZ-3" value="Please select tutor and arrange tutoring time.&amp;nbsp;" style="rounded=0;whiteSpace=wrap;html=1;" vertex="1" parent="48EZU8U2pRMW85eobXTZ-0">
          <mxGeometry x="340" y="110" width="230" height="70" as="geometry" />
        </mxCell>
        <mxCell id="48EZU8U2pRMW85eobXTZ-4" value="" style="verticalLabelPosition=bottom;shadow=0;dashed=0;align=center;html=1;verticalAlign=top;strokeWidth=1;shape=mxgraph.mockup.graphics.simpleIcon;strokeColor=#999999;" vertex="1" parent="48EZU8U2pRMW85eobXTZ-0">
          <mxGeometry x="170" y="250" width="230" height="335" as="geometry" />
        </mxCell>
        <mxCell id="48EZU8U2pRMW85eobXTZ-5" value="User selects tutor" style="text;html=1;align=center;verticalAlign=middle;whiteSpace=wrap;rounded=0;" vertex="1" parent="48EZU8U2pRMW85eobXTZ-0">
          <mxGeometry x="190" y="300" width="180" height="190" as="geometry" />
        </mxCell>
        <mxCell id="48EZU8U2pRMW85eobXTZ-8" value="" style="verticalLabelPosition=bottom;shadow=0;dashed=0;align=center;html=1;verticalAlign=top;strokeWidth=1;shape=mxgraph.mockup.graphics.simpleIcon;strokeColor=#999999;" vertex="1" parent="48EZU8U2pRMW85eobXTZ-0">
          <mxGeometry x="510" y="250" width="230" height="335" as="geometry" />
        </mxCell>
        <mxCell id="48EZU8U2pRMW85eobXTZ-9" value="Arrange time and date" style="text;html=1;align=center;verticalAlign=middle;whiteSpace=wrap;rounded=0;" vertex="1" parent="48EZU8U2pRMW85eobXTZ-0">
          <mxGeometry x="542.5" y="355" width="165" height="80" as="geometry" />
        </mxCell>
      </root>
    </mxGraphModel>
  </diagram>
</mxfile>
